<?xml version="1.0" encoding="UTF-8"?>
<svg width="1536px" height="1536px" viewBox="0 0 1536 1536" version="1.1" xmlns="http://www.w3.org/2000/svg" xmlns:xlink="http://www.w3.org/1999/xlink">
    <title>RR logo BETA</title>
    <g id="Taggr-Logos/Colors" stroke="none" stroke-width="1" fill="none" fill-rule="evenodd">
        <g id="Retorno-Rapido-New-Logo-Deep-Orange-BETA" transform="translate(-32.000000, -32.000000)">
            <g id="RR-logo-BETA" transform="translate(32.000000, 32.000000)">
                <g id="Retorno-Rapido-New-Logo-Deep-Orange">
                    <path d="M768.32377,0.816670895 C1192.20284,0.816670895 1535.82263,344.436468 1535.82263,768.315533 C1535.82263,1192.19556 1192.20284,1535.81536 768.32377,1535.81536 C344.443746,1535.81536 0.823948319,1192.19556 0.823948319,768.315533 C0.823948319,344.436468 344.443746,0.816670895 768.32377,0.816670895" id="Fill-1" fill="#FF5722"></path>
                    <path d="M527.610264,244.221065 L914.70843,244.221065 C956.870144,244.221065 995.794925,251.497209 1031.42807,266.067731 C1067.07753,280.6181 1097.71085,300.70187 1123.30882,326.302728 C1148.926,351.919899 1168.99345,382.534021 1183.56301,418.183481 C1198.11434,453.83582 1205.4068,492.244304 1205.4068,533.407012 C1205.4068,576.584047 1199.62677,615.75642 1188.08205,650.888623 C1176.53638,686.042898 1160.72118,717.42187 1140.63645,745.033215 C1120.55268,772.640722 1097.46037,796.497877 1071.34514,816.581647 C1045.25006,836.650063 1017.12433,852.729171 987.005396,864.774826 L1131.60029,1248.85102 L865.005705,1248.85102 L744.499244,903.928006 L649.609956,903.928006 L583.343494,1248.85102 L333.312646,1248.85102 L527.610264,244.221065 Z M801.744899,702.106652 C821.828669,702.106652 841.14855,699.5981 859.722775,694.581955 C878.313314,689.546618 894.376107,681.274346 907.932268,669.729633 C921.48747,658.165727 932.286527,643.117294 940.308327,624.543069 C948.35028,605.95253 952.351104,583.112616 952.351104,555.999334 C952.351104,523.872787 942.816879,498.772872 923.74747,480.695752 C904.658867,462.62247 878.560906,453.585349 845.419038,453.585349 L736.974548,453.585349 L688.782328,702.106652 L801.744899,702.106652 Z" id="Fill-3" fill="#FFFFFF"></path>
                    <path d="M256.081106,1194.71179 L166.338476,868.94551 L148.520463,804.240416 L214.710152,792.569987 L528.931716,737.217742 L549.992421,857.873909 L412.023982,882.187862 C873.930545,1129.87042 1616.68649,876.909731 1205.80122,542.98826 C1205.86648,541.089092 1205.89911,539.17457 1205.89911,537.248532 C1205.89911,534.930952 1205.84537,532.629687 1205.75228,530.349534 C1694.53509,832.05233 973.885881,1289.40531 342.112731,1047.34731 L373.874607,1162.62267 L256.081106,1194.71179 Z" id="Fill-4" fill="#660066"></path>
                </g>
                <g id="Beta-label" transform="translate(852.000000, 1303.000000)">
                    <rect id="Rectangle" fill="#660066" x="0" y="0" width="684" height="233" rx="116.5"></rect>
                    <text id="BETA" font-family="Ubuntu-MediumItalic, Ubuntu" font-size="150" font-style="italic" font-weight="400" fill="#FFFFFF">
                        <tspan x="163.75" y="172">BETA</tspan>
                    </text>
                </g>
            </g>
        </g>
    </g>
</svg>